<?xml version="1.0" encoding="UTF-8"?>
<svg id="Layer_2" data-name="Layer 2" xmlns="http://www.w3.org/2000/svg" viewBox="0 0 262.48 254.85">
  <defs>
    <style>
      .cls-1 {
        fill: none;
        stroke: #ea5f9e;
        stroke-miterlimit: 10;
        stroke-width: .1px;
      }
    </style>
  </defs>
  <g id="Capa_1" data-name="Capa 1">
    <g>
      <rect x="26.24" y="139.89" width="1.54" height="23.16"/>
      <path d="M18.52,5.54c-.53.17-1.04.36-1.54.57v248.34c.5.11,1.02.2,1.54.27V5.54Z"/>
      <path d="M26.24,28.33c.57,0,1.09.13,1.54.9V4.53c-.51-.03-1.02-.05-1.54-.05v23.84Z"/>
      <path d="M27.79,230.49c-.44.43-.95.51-1.54.51v22.82c.53-.21,1.05-.44,1.54-.7v-22.63Z"/>
      <path d="M23.15,225.55c-.86-6.97-1.06-22.77-1.06-58.59v-74.6c0-35.81.21-51.62,1.06-58.59V4.63c-.53.05-1.04.11-1.54.19v250c.52-.03,1.04-.07,1.54-.15v-29.11Z"/>
      <path d="M9.28,12.71c-.54.82-1.06,1.72-1.54,2.69v231.56c.49.89,1,1.69,1.54,2.41V12.71Z"/>
      <rect x="35.48" y="139.89" width="1.54" height="113.26"/>
      <path d="M3.1,231.71c.46,2.65.97,5.04,1.54,7.17V23.91c-.58,2.18-1.09,4.57-1.54,7.2v200.6Z"/>
      <path d="M13.88,7.83c-.52.37-1.03.78-1.51,1.23v243.38c.49.35.99.65,1.51.92V7.83Z"/>
      <path d="M46.29,24.46c-.46-1.9-.98-3.65-1.54-5.26v56.1l1.54-.1V24.46Z"/>
      <path d="M49.38,75h.01c.16-7.91.16-15.03-.01-21.44v21.44Z"/>
      <rect x="49.38" y="139.89" width="1.51" height="113.26"/>
      <path d="M.02,84.04c-.01,1.99-.02,4.03-.02,6.12v79.03c0,2.26,0,4.45.02,6.6v-91.74Z"/>
      <path d="M32.39,139.89h-1.51v111.08c.55-.5,1.05-1.04,1.51-1.62v-109.46Z"/>
      <path d="M37.02,7.65c-.5-.36-1.01-.7-1.54-.99v69.29l1.54-.1V7.65Z"/>
      <path d="M32.39,5.34c-.49-.15-1-.28-1.51-.39v71.3l1.51-.1V5.34Z"/>
      <path d="M40.11,75.62l1.54-.1V12.68c-.49-.77-1-1.48-1.54-2.13v65.07Z"/>
      <rect x="44.74" y="139.89" width="1.54" height="113.26"/>
      <rect x="40.11" y="139.89" width="1.54" height="113.26"/>
    </g>
    <g>
      <rect x="88" y="6.19" width="1.51" height="246.96"/>
      <polygon points="97.23 99.94 98.78 158.15 98.78 6.19 97.23 6.19 97.23 99.94"/>
      <rect x="83.36" y="6.19" width="1.54" height="246.96"/>
      <polygon points="92.6 166.87 94.14 108.66 94.14 6.19 92.6 6.19 92.6 166.87"/>
      <polygon points="71.01 195.42 69.49 223.41 69.49 253.15 71.01 253.15 71.01 195.42"/>
      <polygon points="80.27 23.93 78.73 52.51 78.73 253.15 80.27 253.15 80.27 23.93"/>
      <polygon points="75.64 109.67 74.1 138.26 74.1 253.15 75.64 253.15 75.64 109.67"/>
      <polygon points="117.28 133.96 115.74 105.37 115.74 253.15 117.28 253.15 117.28 133.96"/>
      <polygon points="112.65 48.19 111.1 19.61 111.1 253.15 112.65 253.15 112.65 48.19"/>
      <polygon points="121.91 219.72 120.37 191.13 120.37 253.15 121.91 253.15 121.91 219.72"/>
      <rect x="92.6" y="173.27" width="1.54" height="23.85"/>
      <rect x="106.5" y="6.19" width="1.51" height="246.96"/>
      <rect x="101.87" y="6.19" width="1.54" height="246.96"/>
      <rect x="97.23" y="173.27" width="1.54" height="23.85"/>
    </g>
    <g>
      <path d="M160.47,226.08c-.92-6.68-1.13-22.37-1.13-59.11v-74.6c0-36.75.22-52.43,1.13-59.11V4.62c-.53.05-1.04.11-1.54.19v250.01c.52-.03,1.04-.08,1.54-.16v-28.57Z"/>
      <path d="M155.83,5.52c-.53.17-1.04.35-1.54.56v248.38c.5.11,1.02.2,1.54.26V5.52Z"/>
      <path d="M163.55,28.33c.56.01,1.07.17,1.51.97V4.54c-.49-.03-1-.05-1.51-.05v23.84Z"/>
      <path d="M165.07,230.45c-.43.45-.93.54-1.51.55v22.79c.52-.2,1.02-.43,1.51-.69v-22.65Z"/>
      <path d="M140.42,232.12c.46,2.6.97,4.93,1.54,7.01V23.65c-.57,2.14-1.09,4.49-1.54,7.07v201.39Z"/>
      <rect x="172.79" y="139.89" width="1.54" height="113.26"/>
      <path d="M151.2,7.78c-.53.38-1.05.79-1.54,1.24v243.43c.5.35,1.01.66,1.54.93V7.78Z"/>
      <path d="M146.56,12.66c-.53.8-1.04,1.67-1.51,2.61v231.83c.48.86.98,1.63,1.51,2.33V12.66Z"/>
      <rect x="163.55" y="139.89" width="1.51" height="23.16"/>
      <path d="M169.7,139.89h-1.54v111.04c.56-.51,1.07-1.07,1.54-1.66v-109.38Z"/>
      <path d="M186.66,73.56c.12-6.7.13-12.82,0-18.42v18.42Z"/>
      <rect x="182.06" y="139.89" width="1.51" height="113.26"/>
      <rect x="186.66" y="139.89" width="1.54" height="113.26"/>
      <path d="M137.33,76.5c-.06,4.31-.08,8.85-.08,13.66v79.03c0,5.26.03,10.21.08,14.88v-107.57Z"/>
      <path d="M169.7,5.36c-.5-.16-1.02-.29-1.54-.4v71.29l1.54-.1V5.36Z"/>
      <rect x="177.42" y="139.89" width="1.54" height="113.26"/>
      <path d="M182.06,75.31l1.51-.1V24.61c-.45-1.88-.96-3.61-1.51-5.2v55.9Z"/>
      <path d="M174.33,7.7c-.5-.37-1.01-.7-1.54-1v69.24l1.54-.1V7.7Z"/>
      <path d="M177.42,75.62l1.54-.1V12.79c-.49-.77-1-1.49-1.54-2.15v64.98Z"/>
    </g>
    <g>
      <rect x="243.75" y="7.89" width="1.54" height="246.96"/>
      <rect x="234.48" y="174.97" width="1.54" height="23.85"/>
      <path d="M234.48,51.32h.24c.15,9.54.61,22.82.77,31.17l.54,20.37V7.89h-1.54v43.43Z"/>
      <polygon points="259.16 193.44 257.62 164.85 257.62 254.85 259.16 254.85 259.16 193.44"/>
      <rect x="225.24" y="7.89" width="1.51" height="246.96"/>
      <polygon points="248.38 254.85 249.89 254.85 249.89 21.93 249.13 7.89 248.38 7.89 248.38 254.85"/>
      <polygon points="252.98 254.85 254.53 254.85 254.53 107.68 252.98 79.1 252.98 254.85"/>
      <polygon points="231.39 174.97 231.19 174.97 231.39 167.35 231.39 7.89 229.84 7.89 229.84 225.47 230.57 198.82 231.39 198.82 231.39 174.97"/>
      <polygon points="240.66 7.89 239.11 7.89 239.11 219.37 240.08 254.85 240.66 254.85 240.66 7.89"/>
      <polygon points="262.25 254.85 262.48 254.85 262.25 250.6 262.25 254.85"/>
      <polygon points="217.52 53.6 215.97 82.18 215.97 254.85 217.52 254.85 217.52 53.6"/>
      <polygon points="212.89 139.35 211.34 167.94 211.34 254.85 212.89 254.85 212.89 139.35"/>
      <polygon points="208.25 225.11 206.71 253.69 206.71 254.85 208.25 254.85 208.25 225.11"/>
      <rect x="220.61" y="7.89" width="1.54" height="246.96"/>
    </g>
    <line class="cls-1" x1="20.3" x2="20.3" y2="1.18"/>
  </g>
</svg>